{
  "accessors": [
    {
      "bufferView": 2,
      "componentType": 5126,
      "count": 2681,
      "max": [
        100.0,
        134.92361450195313,
        111.10470581054688
      ],
      "min": [
        -100.0,
        -157.5049285888672,
        -146.21568298339844
      ],
      "type": "VEC3"
    },
    {
      "bufferView": 2,
      "byteOffset": 32172,
      "componentType": 5126,
      "count": 2681,
      "max": [
        0.9999980330467224,
        0.9998712539672852,
        0.9999769926071167
      ],
      "min": [
        -0.9999980330467224,
        -0.9993352890014648,
        -0.9999852180480957
      ],
      "type": "VEC3"
    },
    {
      "bufferView": 1,
      "componentType": 5126,
      "count": 2681,
      "max": [
        0.9525768756866455,
        0.8474769592285156
      ],
      "min": [
        0.3878291845321655,
        0.034267544746398926
      ],
      "type": "VEC2"
    },
    {
      "bufferView": 0,
      "componentType": 5125,
      "count": 14820,
      "type": "SCALAR"
    },
    {
      "bufferView": 2,
      "byteOffset": 64344,
      "componentType": 5126,
      "count": 1710,
      "max": [
        60.272300720214844,
        111.28694152832031,
        106.25216674804688
      ],
      "min": [
        -60.27232360839844,
        -171.18408203125,
        -92.77726745605469
      ],
      "type": "VEC3"
    },
    {
      "bufferView": 2,
      "byteOffset": 84864,
      "componentType": 5126,
      "count": 1710,
      "max": [
        0.9999896883964539,
        0.9999967217445374,
        0.9998681545257568
      ],
      "min": [
        -0.9999896883964539,
        -1.0,
        -0.9998680949211121
      ],
      "type": "VEC3"
    },
    {
      "bufferView": 1,
      "byteOffset": 21448,
      "componentType": 5126,
      "count": 1710,
      "max": [
        0.5,
        0.49303731322288513
      ],
      "min": [
        0.4326936900615692,
        0.2550000250339508
      ],
      "type": "VEC2"
    },
    {
      "bufferView": 0,
      "byteOffset": 59280,
      "componentType": 5125,
      "count": 9936,
      "type": "SCALAR"
    },
    {
      "bufferView": 2,
      "byteOffset": 105384,
      "componentType": 5126,
      "count": 3372,
      "max": [
        10000.0,
        11243.4921875,
        13890.763671875
      ],
      "min": [
        -10000.0,
        -14990.87109375,
        -12887.060546875
      ],
      "type": "VEC3"
    },
    {
      "bufferView": 2,
      "byteOffset": 145848,
      "componentType": 5126,
      "count": 3372,
      "max": [
        0.999994158744812,
        1.0,
        1.0
      ],
      "min": [
        -0.9999942779541016,
        -0.9998167753219604,
        -1.0
      ],
      "type": "VEC3"
    },
    {
      "bufferView": 1,
      "byteOffset": 35128,
      "componentType": 5126,
      "count": 3372,
      "max": [
        0.9010416269302368,
        0.6560418605804443
      ],
      "min": [
        0.513333261013031,
        0.028645843267440796
      ],
      "type": "VEC2"
    },
    {
      "bufferView": 0,
      "byteOffset": 99024,
      "componentType": 5125,
      "count": 19380,
      "type": "SCALAR"
    },
    {
      "bufferView": 2,
      "byteOffset": 186312,
      "componentType": 5126,
      "count": 4629,
      "max": [
        10000.0,
        11152.8876953125,
        14847.69921875
      ],
      "min": [
        -10000.0,
        -19247.28125,
        -14373.41015625
      ],
      "type": "VEC3"
    },
    {
      "bufferView": 2,
      "byteOffset": 241860,
      "componentType": 5126,
      "count": 4629,
      "max": [
        1.0,
        1.0,
        1.0
      ],
      "min": [
        -1.0,
        -1.0,
        -1.0
      ],
      "type": "VEC3"
    },
    {
      "bufferView": 1,
      "byteOffset": 62104,
      "componentType": 5126,
      "count": 4629,
      "max": [
        0.9479166269302368,
        0.88671875
      ],
      "min": [
        0.016927074640989304,
        0.4661458432674408
      ],
      "type": "VEC2"
    },
    {
      "bufferView": 0,
      "byteOffset": 176544,
      "componentType": 5125,
      "count": 24180,
      "type": "SCALAR"
    },
    {
      "bufferView": 2,
      "byteOffset": 297408,
      "componentType": 5126,
      "count": 3925,
      "max": [
        10000.0,
        11356.21875,
        12884.509765625
      ],
      "min": [
        -10000.0,
        -12086.59765625,
        -20465.421875
      ],
      "type": "VEC3"
    },
    {
      "bufferView": 2,
      "byteOffset": 344508,
      "componentType": 5126,
      "count": 3925,
      "max": [
        1.0,
        1.0,
        1.0
      ],
      "min": [
        -1.0,
        -1.0,
        -1.0
      ],
      "type": "VEC3"
    },
    {
      "bufferView": 1,
      "byteOffset": 99136,
      "componentType": 5126,
      "count": 3925,
      "max": [
        0.9024884700775146,
        0.9821841716766357
      ],
      "min": [
        0.5142711997032166,
        0.5131242275238037
      ],
      "type": "VEC2"
    },
    {
      "bufferView": 0,
      "byteOffset": 273264,
      "componentType": 5125,
      "count": 22104,
      "type": "SCALAR"
    },
    {
      "bufferView": 2,
      "byteOffset": 391608,
      "componentType": 5126,
      "count": 2987,
      "max": [
        11271.8916015625,
        15111.61328125,
        13563.833984375
      ],
      "min": [
        -11332.609375,
        -13951.26953125,
        -13918.751953125
      ],
      "type": "VEC3"
    },
    {
      "bufferView": 2,
      "byteOffset": 427452,
      "componentType": 5126,
      "count": 2987,
      "max": [
        0.99989914894104,
        1.0,
        0.9994984865188599
      ],
      "min": [
        -0.9998990893363953,
        -0.9999654293060303,
        -0.999923825263977
      ],
      "type": "VEC3"
    },
    {
      "bufferView": 1,
      "byteOffset": 130536,
      "componentType": 5126,
      "count": 2987,
      "max": [
        0.9798474907875061,
        0.8930208683013916
      ],
      "min": [
        0.20833343267440796,
        0.028645873069763184
      ],
      "type": "VEC2"
    },
    {
      "bufferView": 0,
      "byteOffset": 361680,
      "componentType": 5125,
      "count": 17094,
      "type": "SCALAR"
    },
    {
      "bufferView": 2,
      "byteOffset": 463296,
      "componentType": 5126,
      "count": 42291,
      "max": [
        14512.890625,
        11653.01953125,
        14847.69921875
      ],
      "min": [
        -14512.951171875,
        -13288.572265625,
        -12064.5771484375
      ],
      "type": "VEC3"
    },
    {
      "bufferView": 2,
      "byteOffset": 970788,
      "componentType": 5126,
      "count": 42291,
      "max": [
        1.0,
        1.0,
        1.0
      ],
      "min": [
        -1.0,
        -1.0,
        -1.0
      ],
      "type": "VEC3"
    },
    {
      "bufferView": 1,
      "byteOffset": 154432,
      "componentType": 5126,
      "count": 42291,
      "max": [
        0.9834234714508057,
        0.9178221821784973
      ],
      "min": [
        0.41666674613952637,
        0.034267544746398926
      ],
      "type": "VEC2"
    },
    {
      "bufferView": 0,
      "byteOffset": 430056,
      "componentType": 5125,
      "count": 251172,
      "type": "SCALAR"
    },
    {
      "bufferView": 2,
      "byteOffset": 1478280,
      "componentType": 5126,
      "count": 554,
      "max": [
        205.7037353515625,
        11860.6953125,
        127.37865447998047
      ],
      "min": [
        -830.1861572265625,
        11382.9072265625,
        -797.6942749023438
      ],
      "type": "VEC3"
    },
    {
      "bufferView": 2,
      "byteOffset": 1484928,
      "componentType": 5126,
      "count": 554,
      "max": [
        0.9999159574508667,
        0.9992722272872925,
        0.9999856948852539
      ],
      "min": [
        -0.9999159574508667,
        -0.06861662864685059,
        -0.9999867081642151
      ],
      "type": "VEC3"
    },
    {
      "bufferView": 1,
      "byteOffset": 492760,
      "componentType": 5126,
      "count": 554,
      "max": [
        0.5608503818511963,
        0.7037165760993958
      ],
      "min": [
        0.5608503818511963,
        0.703716516494751
      ],
      "type": "VEC2"
    },
    {
      "bufferView": 0,
      "byteOffset": 1434744,
      "componentType": 5125,
      "count": 3168,
      "type": "SCALAR"
    },
    {
      "bufferView": 2,
      "byteOffset": 1491576,
      "componentType": 5126,
      "count": 2552,
      "max": [
        10000.0,
        14777.45703125,
        11482.162109375
      ],
      "min": [
        -10000.0,
        -22481.34375,
        -13615.7392578125
      ],
      "type": "VEC3"
    },
    {
      "bufferView": 2,
      "byteOffset": 1522200,
      "componentType": 5126,
      "count": 2552,
      "max": [
        0.9999819993972778,
        1.0,
        1.0
      ],
      "min": [
        -0.9999820590019226,
        -1.0,
        -0.9980379939079285
      ],
      "type": "VEC3"
    },
    {
      "bufferView": 1,
      "byteOffset": 497192,
      "componentType": 5126,
      "count": 2552,
      "max": [
        0.9207176566123962,
        0.5775877833366394
      ],
      "min": [
        0.02228027582168579,
        0.015138745307922363
      ],
      "type": "VEC2"
    },
    {
      "bufferView": 0,
      "byteOffset": 1447416,
      "componentType": 5125,
      "count": 12846,
      "type": "SCALAR"
    },
    {
      "bufferView": 2,
      "byteOffset": 1552824,
      "componentType": 5126,
      "count": 4418,
      "max": [
        12135.5185546875,
        11319.5400390625,
        14847.69921875
      ],
      "min": [
        -12135.517578125,
        -13458.5078125,
        -10551.5927734375
      ],
      "type": "VEC3"
    },
    {
      "bufferView": 2,
      "byteOffset": 1605840,
      "componentType": 5126,
      "count": 4418,
      "max": [
        1.0,
        1.0,
        1.0
      ],
      "min": [
        -1.0,
        -1.0,
        -1.0
      ],
      "type": "VEC3"
    },
    {
      "bufferView": 1,
      "byteOffset": 517608,
      "componentType": 5126,
      "count": 4418,
      "max": [
        0.9817707538604736,
        0.8800820112228394
      ],
      "min": [
        0.47135424613952637,
        0.021825820207595825
      ],
      "type": "VEC2"
    },
    {
      "bufferView": 0,
      "byteOffset": 1498800,
      "componentType": 5125,
      "count": 23664,
      "type": "SCALAR"
    }
  ],
  "asset": {
    "extras": {
      "author": "ezgi bakim (https://sketchfab.com/ezgibakim)",
      "license": "CC-BY-4.0 (http://creativecommons.org/licenses/by/4.0/)",
      "source": "https://sketchfab.com/3d-models/cube-farm-animals-b28b7fd5c1454e9d9327fd546463d79f",
      "title": "Cube Farm Animals"
    },
    "generator": "Sketchfab-17.8.0",
    "version": "2.0"
  },
  "bufferViews": [
    {
      "buffer": 0,
      "byteLength": 1593456,
      "name": "floatBufferViews",
      "target": 34963
    },
    {
      "buffer": 0,
      "byteLength": 552952,
      "byteOffset": 1593456,
      "byteStride": 8,
      "name": "floatBufferViews",
      "target": 34962
    },
    {
      "buffer": 0,
      "byteLength": 1658856,
      "byteOffset": 2146408,
      "byteStride": 12,
      "name": "floatBufferViews",
      "target": 34962
    }
  ],
  "buffers": [
    {
      "byteLength": 3805264,
      "uri": "scene.bin"
    }
  ],
  "images": [
    {
      "uri": "textures/Material_baseColor.png"
    }
  ],
  "materials": [
    {
      "doubleSided": true,
      "name": "Material",
      "pbrMetallicRoughness": {
        "baseColorTexture": {
          "index": 0
        },
        "metallicFactor": 0.0,
        "roughnessFactor": 0.8211145618000169
      }
    },
    {
      "doubleSided": true,
      "name": "kahve",
      "pbrMetallicRoughness": {
        "baseColorFactor": [
          0.0578024,
          0.013669,
          0.0,
          1.0
        ],
        "metallicFactor": 0.0,
        "roughnessFactor": 0.995066147527261
      }
    },
    {
      "doubleSided": true,
      "name": "Material.003",
      "pbrMetallicRoughness": {
        "baseColorTexture": {
          "index": 0
        },
        "metallicFactor": 0.0,
        "roughnessFactor": 0.8211145618000169
      }
    },
    {
      "doubleSided": true,
      "name": "palet.001",
      "pbrMetallicRoughness": {
        "baseColorTexture": {
          "index": 0
        },
        "metallicFactor": 0.0,
        "roughnessFactor": 0.8067816118382944
      }
    }
  ],
  "meshes": [
    {
      "name": "Cube.023_Material_0",
      "primitives": [
        {
          "attributes": {
            "NORMAL": 1,
            "POSITION": 0,
            "TEXCOORD_0": 2
          },
          "indices": 3,
          "material": 0,
          "mode": 4
        }
      ]
    },
    {
      "name": "Cube.023_kahve_0",
      "primitives": [
        {
          "attributes": {
            "NORMAL": 5,
            "POSITION": 4,
            "TEXCOORD_0": 6
          },
          "indices": 7,
          "material": 1,
          "mode": 4
        }
      ]
    },
    {
      "name": "Cube.038_Material.003_0",
      "primitives": [
        {
          "attributes": {
            "NORMAL": 9,
            "POSITION": 8,
            "TEXCOORD_0": 10
          },
          "indices": 11,
          "material": 2,
          "mode": 4
        }
      ]
    },
    {
      "name": "Cube.041_Material.003_0",
      "primitives": [
        {
          "attributes": {
            "NORMAL": 13,
            "POSITION": 12,
            "TEXCOORD_0": 14
          },
          "indices": 15,
          "material": 2,
          "mode": 4
        }
      ]
    },
    {
      "name": "Cube.042_Material.003_0",
      "primitives": [
        {
          "attributes": {
            "NORMAL": 17,
            "POSITION": 16,
            "TEXCOORD_0": 18
          },
          "indices": 19,
          "material": 2,
          "mode": 4
        }
      ]
    },
    {
      "name": "Cube.046_Material.003_0",
      "primitives": [
        {
          "attributes": {
            "NORMAL": 21,
            "POSITION": 20,
            "TEXCOORD_0": 22
          },
          "indices": 23,
          "material": 2,
          "mode": 4
        }
      ]
    },
    {
      "name": "Cube.048_Material.003_0",
      "primitives": [
        {
          "attributes": {
            "NORMAL": 25,
            "POSITION": 24,
            "TEXCOORD_0": 26
          },
          "indices": 27,
          "material": 2,
          "mode": 4
        }
      ]
    },
    {
      "name": "Cube.048_palet.001_0",
      "primitives": [
        {
          "attributes": {
            "NORMAL": 29,
            "POSITION": 28,
            "TEXCOORD_0": 30
          },
          "indices": 31,
          "material": 3,
          "mode": 4
        }
      ]
    },
    {
      "name": "Cube.052_Material.003_0",
      "primitives": [
        {
          "attributes": {
            "NORMAL": 33,
            "POSITION": 32,
            "TEXCOORD_0": 34
          },
          "indices": 35,
          "material": 2,
          "mode": 4
        }
      ]
    },
    {
      "name": "Cube.056_Material.003_0",
      "primitives": [
        {
          "attributes": {
            "NORMAL": 37,
            "POSITION": 36,
            "TEXCOORD_0": 38
          },
          "indices": 39,
          "material": 2,
          "mode": 4
        }
      ]
    }
  ],
  "nodes": [
    {
      "children": [
        1
      ],
      "matrix": [
        1.0,
        0.0,
        0.0,
        0.0,
        0.0,
        2.220446049250313e-16,
        -1.0,
        0.0,
        0.0,
        1.0,
        2.220446049250313e-16,
        0.0,
        0.0,
        0.0,
        0.0,
        1.0
      ],
      "name": "Sketchfab_model"
    },
    {
      "children": [
        2
      ],
      "matrix": [
        0.009999999776482582,
        0.0,
        0.0,
        0.0,
        0.0,
        0.0,
        0.009999999776482582,
        0.0,
        0.0,
        -0.009999999776482582,
        0.0,
        0.0,
        0.0,
        0.0,
        0.0,
        1.0
      ],
      "name": "9d5f404de1f34d30a6e71fe24f619e0a.fbx"
    },
    {
      "children": [
        3,
        6,
        8,
        10,
        12,
        14,
        17,
        19
      ],
      "name": "RootNode"
    },
    {
      "children": [
        4,
        5
      ],
      "matrix": [
        1.0,
        0.0,
        0.0,
        0.0,
        0.0,
        1.0,
        0.0,
        0.0,
        0.0,
        0.0,
        1.0,
        0.0,
        -800.9458618164063,
        174.11647033691406,
        6.349114119075239e-05,
        1.0
      ],
      "name": "Cube.023"
    },
    {
      "mesh": 0,
      "name": "Cube.023_Material_0"
    },
    {
      "mesh": 1,
      "name": "Cube.023_kahve_0"
    },
    {
      "children": [
        7
      ],
      "matrix": [
        0.009999999776482582,
        0.0,
        0.0,
        0.0,
        0.0,
        -1.6292067575027046e-09,
        0.00999999977648245,
        0.0,
        0.0,
        -0.00999999977648245,
        -1.6292067575027046e-09,
        0.0,
        -1774.74267578125,
        548.3084716796875,
        -6.344789289869368e-05,
        1.0
      ],
      "name": "Cube.038"
    },
    {
      "mesh": 2,
      "name": "Cube.038_Material.003_0"
    },
    {
      "children": [
        9
      ],
      "matrix": [
        0.009999999776482582,
        0.0,
        0.0,
        0.0,
        0.0,
        -1.6292067575027046e-09,
        0.00999999977648245,
        0.0,
        0.0,
        -0.00999999977648245,
        -1.6292067575027046e-09,
        0.0,
        -1466.75927734375,
        154.06875610351563,
        -2.4087541532935575e-05,
        1.0
      ],
      "name": "Cube.041"
    },
    {
      "mesh": 3,
      "name": "Cube.041_Material.003_0"
    },
    {
      "children": [
        11
      ],
      "matrix": [
        0.009999999776482582,
        0.0,
        0.0,
        0.0,
        0.0,
        -1.6292067575027046e-09,
        0.00999999977648245,
        0.0,
        0.0,
        -0.00999999977648245,
        -1.6292067575027046e-09,
        0.0,
        -1128.869384765625,
        135.4949951171875,
        -2.6583096769172698e-05,
        1.0
      ],
      "name": "Cube.042"
    },
    {
      "mesh": 4,
      "name": "Cube.042_Material.003_0"
    },
    {
      "children": [
        13
      ],
      "matrix": [
        0.009999999776482582,
        0.0,
        0.0,
        0.0,
        0.0,
        -1.6292067575027046e-09,
        0.00999999977648245,
        0.0,
        0.0,
        -0.00999999977648245,
        -1.6292067575027046e-09,
        0.0,
        -1463.761474609375,
        541.3311767578125,
        -6.438534910557792e-05,
        1.0
      ],
      "name": "Cube.046"
    },
    {
      "mesh": 5,
      "name": "Cube.046_Material.003_0"
    },
    {
      "children": [
        15,
        16
      ],
      "matrix": [
        0.009999999776482582,
        0.0,
        0.0,
        0.0,
        0.0,
        -1.6292067575027046e-09,
        0.00999999977648245,
        0.0,
        0.0,
        -0.00999999977648245,
        -1.6292067575027046e-09,
        0.0,
        -1134.1346435546875,
        544.81982421875,
        -6.39166246401146e-05,
        1.0
      ],
      "name": "Cube.048"
    },
    {
      "mesh": 6,
      "name": "Cube.048_Material.003_0"
    },
    {
      "mesh": 7,
      "name": "Cube.048_palet.001_0"
    },
    {
      "children": [
        18
      ],
      "matrix": [
        0.009999999776482582,
        0.0,
        0.0,
        0.0,
        0.0,
        -1.6292067575027046e-09,
        0.00999999977648245,
        0.0,
        0.0,
        -0.00999999977648245,
        -1.6292067575027046e-09,
        0.0,
        -1773.4447021484375,
        126.934814453125,
        -2.7733225579140708e-05,
        1.0
      ],
      "name": "Cube.052"
    },
    {
      "mesh": 8,
      "name": "Cube.052_Material.003_0"
    },
    {
      "children": [
        20
      ],
      "matrix": [
        0.009999999776482582,
        0.0,
        0.0,
        0.0,
        0.0,
        -1.6292067575027046e-09,
        0.00999999977648245,
        0.0,
        0.0,
        -0.00999999977648245,
        -1.6292067575027046e-09,
        0.0,
        -795.3291015625,
        552.9600219726563,
        -6.282291724346578e-05,
        1.0
      ],
      "name": "Cube.056"
    },
    {
      "mesh": 9,
      "name": "Cube.056_Material.003_0"
    }
  ],
  "samplers": [
    {
      "magFilter": 9729,
      "minFilter": 9987,
      "wrapS": 10497,
      "wrapT": 10497
    }
  ],
  "scene": 0,
  "scenes": [
    {
      "name": "Sketchfab_Scene",
      "nodes": [
        0
      ]
    }
  ],
  "textures": [
    {
      "sampler": 0,
      "source": 0
    }
  ]
}
